<?xml version="1.0" encoding="utf-8"?>
<!-- Generator: Adobe Illustrator 16.0.4, SVG Export Plug-In . SVG Version: 6.00 Build 0)  -->
<!DOCTYPE svg PUBLIC "-//W3C//DTD SVG 1.1//EN" "http://www.w3.org/Graphics/SVG/1.1/DTD/svg11.dtd">
<svg version="1.1" id="Layer_2" xmlns="http://www.w3.org/2000/svg" xmlns:xlink="http://www.w3.org/1999/xlink" x="0px" y="0px"
	 width="63.9px" height="35.4px" viewBox="0 0 63.9 35.4" enable-background="new 0 0 63.9 35.4" xml:space="preserve">
<g>
	<path fill="#FF8A22" d="M62.4,17.5C62.4,7.9,54.9,0,45.6,0H17.3C8,0,0.4,7.9,0.4,17.5v0.3C0.4,27.4,8,35,17.3,35h28.3
		c9.3,0,16.8-7.6,16.8-17.2V17.5z"/>
	<g opacity="0.15">
		<circle fill="#122D26" cx="46.9" cy="18.4" r="17"/>
	</g>
	<g>
		<path fill="#FFFFFF" d="M45.9,33.9c-9.1,0-16.6-7.4-16.6-16.6c0-9.1,7.4-16.6,16.6-16.6s16.6,7.4,16.6,16.6
			C62.5,26.5,55.1,33.9,45.9,33.9z"/>
		<path fill="#D4D5D6" d="M45.9,1.3C54.8,1.3,62,8.5,62,17.4s-7.2,16.1-16.1,16.1s-16.1-7.2-16.1-16.1S37.1,1.3,45.9,1.3 M45.9,0.4
			c-9.4,0-17,7.6-17,17c0,9.4,7.6,17,17,17s17-7.6,17-17C62.9,8,55.3,0.4,45.9,0.4L45.9,0.4z"/>
	</g>
</g>
</svg>
