<?xml version="1.0" encoding="utf-8"?>
<!-- Generator: Adobe Illustrator 16.0.4, SVG Export Plug-In . SVG Version: 6.00 Build 0)  -->
<!DOCTYPE svg PUBLIC "-//W3C//DTD SVG 1.1//EN" "http://www.w3.org/Graphics/SVG/1.1/DTD/svg11.dtd">
<svg version="1.1" id="Layer_1" xmlns="http://www.w3.org/2000/svg" xmlns:xlink="http://www.w3.org/1999/xlink" x="0px" y="0px"
	 width="26.8px" height="38.5px" viewBox="0 0 26.8 38.5" enable-background="new 0 0 26.8 38.5" xml:space="preserve">
<linearGradient id="SVGID_1_" gradientUnits="userSpaceOnUse" x1="13.3999" y1="26.3369" x2="13.3999" y2="39.0897">
	<stop  offset="0" style="stop-color:#FF8C24"/>
	<stop  offset="0.2886" style="stop-color:#FF8922"/>
	<stop  offset="0.5156" style="stop-color:#FF7F1D"/>
	<stop  offset="0.7216" style="stop-color:#FF6E14"/>
	<stop  offset="0.9141" style="stop-color:#FF5707"/>
	<stop  offset="1" style="stop-color:#FF4A00"/>
</linearGradient>
<path fill="url(#SVGID_1_)" d="M25.2,21.5l-4.9-11l0,0c-1.1-2.4-3.3-4.1-6-4.6c-0.2-0.1-0.2-0.2-0.3-0.4V3.9c0-0.6,0.6-0.3,0.6-0.3
	l0,0c1,0.7,2.3,1.6,4.3,2.4c4.8,1.9,7.9,2,7.9,2s-0.5-5.6-5.7-7.3C19,0,15.4,0.2,14.1,1.9V0.8c0-0.4-0.4-0.8-0.8-0.8h-0.8
	c-0.4,0-0.8,0.4-0.8,0.8v0.6v4c0,0.1,0,0.5-0.5,0.6c-2.5,0.6-4.5,2.3-5.6,4.5l0,0l-0.1,0.2c0,0,0,0,0,0L1,20.9
	c-0.1,0.2-0.2,0.4-0.3,0.6l0,0v0C0.3,22.7,0,24,0,25.6c0,7.2,5.8,13,13,13c7.2,0,13-5.8,13-13C25.9,24.1,25.7,22.7,25.2,21.5
	L25.2,21.5z"/>
</svg>
