<?xml version="1.0" encoding="utf-8"?>
<!-- Generator: Adobe Illustrator 16.0.4, SVG Export Plug-In . SVG Version: 6.00 Build 0)  -->
<!DOCTYPE svg PUBLIC "-//W3C//DTD SVG 1.1//EN" "http://www.w3.org/Graphics/SVG/1.1/DTD/svg11.dtd">
<svg version="1.1" id="Layer_1" xmlns="http://www.w3.org/2000/svg" xmlns:xlink="http://www.w3.org/1999/xlink" x="0px" y="0px"
	 width="63.9px" height="35.4px" viewBox="0 0 63.9 35.4" enable-background="new 0 0 63.9 35.4" xml:space="preserve">
<g>
	<path fill="#3D3D3D" d="M62.4,17.5C62.4,7.9,55,0,45.7,0H17.4c-9.3,0-17,7.9-17,17.5v0.3c0,9.6,7.7,17.2,17,17.2h28.3
		c9.3,0,16.7-7.6,16.7-17.2V17.5z"/>
	<g opacity="0.15">
		<circle fill="#122D26" cx="18" cy="18.4" r="17"/>
	</g>
	<g>
		<path fill="#FFFFFF" d="M17,33.9c-9.1,0-16.6-7.4-16.6-16.6S7.9,0.8,17,0.8s16.6,7.4,16.6,16.6S26.1,33.9,17,33.9z"/>
		<path fill="#D4D5D6" d="M17,1.3c8.9,0,16.1,7.2,16.1,16.1c0,8.9-7.2,16.1-16.1,16.1S0.9,26.3,0.9,17.4C0.9,8.5,8.1,1.3,17,1.3
			 M17,0.4C7.6,0.4,0,8,0,17.4s7.6,17,17,17c9.4,0,17-7.6,17-17S26.4,0.4,17,0.4L17,0.4z"/>
	</g>
</g>
</svg>
