<?xml version="1.0" encoding="utf-8"?>
<!-- Generator: Adobe Illustrator 16.0.4, SVG Export Plug-In . SVG Version: 6.00 Build 0)  -->
<!DOCTYPE svg PUBLIC "-//W3C//DTD SVG 1.1//EN" "http://www.w3.org/Graphics/SVG/1.1/DTD/svg11.dtd">
<svg version="1.1" id="Layer_1" xmlns="http://www.w3.org/2000/svg" xmlns:xlink="http://www.w3.org/1999/xlink" x="0px" y="0px"
	 width="55.7px" height="55.7px" viewBox="0 0 55.7 55.7" enable-background="new 0 0 55.7 55.7" xml:space="preserve">
<g>
	<path fill="none" stroke="#FF8A22" stroke-width="2" stroke-miterlimit="10" d="M52.7,23.9l-5.3-0.9c-0.4-1.6-1-3.1-1.7-4.5
		l3.4-4.2c0.7-0.9,0.7-2.2-0.1-3L47,8.9c-0.8-0.9-2-1-3-0.4l-4.6,2.9c-2-1.4-4.3-2.4-6.7-3L31.8,3c-0.2-1.1-1.2-2-2.3-2h-3.2
		c-1.1,0-2.1,0.8-2.3,2l-0.9,5.3c-2,0.5-3.9,1.3-5.6,2.3l-4.3-3.1c-0.9-0.7-2.2-0.6-3,0.2l-2.3,2.3c-0.8,0.8-0.9,2.1-0.2,3l3.1,4.3
		c-1,1.7-1.8,3.6-2.3,5.6L3,23.9c-1.1,0.2-2,1.2-2,2.3v3.2c0,1.2,0.8,2.1,2,2.3l5.4,0.9c0.4,1.6,1,3.2,1.8,4.7l-3.4,4.2
		c-0.7,0.9-0.7,2.2,0.1,3L8.9,47c0.8,0.9,2,1,3,0.4l4.6-2.9c2,1.3,4.2,2.3,6.5,2.9l0.9,5.3c0.2,1.1,1.2,2,2.3,2h3.2
		c1.2,0,2.1-0.8,2.3-2l0.9-5.3c2-0.5,3.9-1.3,5.6-2.3l4.5,3.2c0.9,0.7,2.2,0.6,3-0.3l2.3-2.3c0.8-0.8,0.9-2.1,0.2-3l-3.2-4.5
		c1-1.7,1.8-3.6,2.3-5.6l5.3-0.9c1.1-0.2,2-1.2,2-2.3v-3.2C54.7,25.1,53.9,24.1,52.7,23.9L52.7,23.9z M27.9,37.9
		c-5.6,0-10.1-4.5-10.1-10.1s4.5-10.1,10.1-10.1c5.6,0,10.1,4.5,10.1,10.1S33.5,37.9,27.9,37.9L27.9,37.9z M27.9,37.9"/>
</g>
</svg>
