<?xml version="1.0" encoding="utf-8"?>
<!-- Generator: Adobe Illustrator 16.0.4, SVG Export Plug-In . SVG Version: 6.00 Build 0)  -->
<!DOCTYPE svg PUBLIC "-//W3C//DTD SVG 1.1//EN" "http://www.w3.org/Graphics/SVG/1.1/DTD/svg11.dtd">
<svg version="1.1" id="Layer_1" xmlns="http://www.w3.org/2000/svg" xmlns:xlink="http://www.w3.org/1999/xlink" x="0px" y="0px"
	 width="35px" height="35px" viewBox="0 0 35 35" enable-background="new 0 0 35 35" xml:space="preserve">
<path opacity="0.75" fill="#1C95F2" stroke="#FFE0C2" stroke-width="2" stroke-miterlimit="10" d="M8.2,19.8
	c1.2,5.1,6.4,8.2,11.5,6.9c5.1-1.2,8.2-6.4,6.9-11.5c-1.2-5.1-6.4-8.2-11.5-6.9C10,9.5,6.9,14.7,8.2,19.8z"/>
<path display="none" opacity="0.75" fill="#1C95F2" d="M9.1,19.5c1.1,4.6,5.7,7.3,10.3,6.2c4.6-1.1,7.3-5.7,6.2-10.3
	c-1.1-4.6-5.7-7.3-10.3-6.2C10.8,10.4,8,15,9.1,19.5z"/>
<g opacity="0.15">
	<path fill="#FF8100" d="M17.4,9c3.8,0,7.3,2.6,8.2,6.5c1.1,4.6-1.6,9.2-6.2,10.3c-0.7,0.2-1.4,0.2-2.1,0.2c-3.8,0-7.3-2.6-8.2-6.5
		C8,15,10.8,10.4,15.4,9.2C16,9.1,16.7,9,17.4,9 M17.4,7c-0.8,0-1.7,0.1-2.5,0.3C12.2,8,9.9,9.6,8.4,12c-1.5,2.4-1.9,5.3-1.2,8
		c1.1,4.7,5.3,8,10.2,8c0.8,0,1.7-0.1,2.5-0.3c5.6-1.3,9.1-7.1,7.7-12.7C26.5,10.3,22.3,7,17.4,7L17.4,7z"/>
</g>
</svg>
