<?xml version="1.0" encoding="utf-8"?>
<!-- Generator: Adobe Illustrator 16.0.4, SVG Export Plug-In . SVG Version: 6.00 Build 0)  -->
<!DOCTYPE svg PUBLIC "-//W3C//DTD SVG 1.1//EN" "http://www.w3.org/Graphics/SVG/1.1/DTD/svg11.dtd">
<svg version="1.1" id="Layer_1" xmlns="http://www.w3.org/2000/svg" xmlns:xlink="http://www.w3.org/1999/xlink" x="0px" y="0px"
	 width="48px" height="48px" viewBox="0 0 48 48" enable-background="new 0 0 48 48" xml:space="preserve">
<path fill="#8B928F" d="M24,14c5.52,0,10,4.48,10,10c0,1.3-0.26,2.52-0.721,3.66l5.841,5.84c3.021-2.52,5.399-5.779,6.86-9.5
	c-3.461-8.78-12-15-22-15c-2.8,0-5.48,0.5-7.96,1.4l4.32,4.32C21.48,14.26,22.7,14,24,14z M4,8.54l4.56,4.56l0.92,0.92
	C6.16,16.6,3.56,20.04,2,24c3.46,8.779,12,15,22,15c3.1,0,6.061-0.6,8.76-1.68l0.84,0.84L39.46,44L42,41.46L6.54,6L4,8.54z
	 M15.06,19.6l3.1,3.1C18.06,23.12,18,23.56,18,24c0,3.32,2.68,6,6,6c0.44,0,0.88-0.061,1.3-0.16l3.101,3.1
	C27.061,33.6,25.58,34,24,34c-5.52,0-10-4.48-10-10C14,22.42,14.4,20.94,15.06,19.6z M23.68,18.04l6.3,6.3l0.039-0.32
	c0-3.32-2.68-6-6-6L23.68,18.04z"/>
</svg>
