<?xml version="1.0" encoding="utf-8"?>
<!-- Generator: Adobe Illustrator 16.0.4, SVG Export Plug-In . SVG Version: 6.00 Build 0)  -->
<!DOCTYPE svg PUBLIC "-//W3C//DTD SVG 1.1//EN" "http://www.w3.org/Graphics/SVG/1.1/DTD/svg11.dtd">
<svg version="1.1" id="Layer_1" xmlns="http://www.w3.org/2000/svg" xmlns:xlink="http://www.w3.org/1999/xlink" x="0px" y="0px"
	 width="48px" height="48px" viewBox="0 0 48 48" enable-background="new 0 0 48 48" xml:space="preserve">
<path fill="#8B928F" d="M24,9C14,9,5.46,15.22,2,24c3.46,8.779,12,15,22,15s18.54-6.221,22-15C42.54,15.22,34,9,24,9z M24,34
	c-5.52,0-10-4.48-10-10c0-5.52,4.48-10,10-10c5.52,0,10,4.48,10,10C34,29.52,29.52,34,24,34z M24,18c-3.32,0-6,2.68-6,6
	c0,3.32,2.68,6,6,6c3.32,0,6-2.68,6-6C30,20.68,27.32,18,24,18z"/>
</svg>
