<?xml version="1.0" encoding="utf-8"?>
<!-- Generator: Adobe Illustrator 16.0.4, SVG Export Plug-In . SVG Version: 6.00 Build 0)  -->
<!DOCTYPE svg PUBLIC "-//W3C//DTD SVG 1.1//EN" "http://www.w3.org/Graphics/SVG/1.1/DTD/svg11.dtd">
<svg version="1.1" id="Layer_1" xmlns="http://www.w3.org/2000/svg" xmlns:xlink="http://www.w3.org/1999/xlink" x="0px" y="0px"
	 width="42px" height="53.9px" viewBox="0 0 42 53.9" enable-background="new 0 0 42 53.9" xml:space="preserve">
<path fill="none" stroke="#FF8A22" stroke-width="2" stroke-miterlimit="10" d="M21,1C10,1,1,10,1,21c0,11,20,31.5,20,31.5
	S41,32.1,41,21C41,10,32.1,1,21,1z M21,32.8c-6.5,0-11.8-5.3-11.8-11.8c0-6.5,5.3-11.8,11.8-11.8c6.5,0,11.8,5.3,11.8,11.8
	C32.8,27.5,27.5,32.8,21,32.8z"/>
<line fill="none" stroke="#FF8A22" stroke-width="2" stroke-miterlimit="10" x1="20.9" y1="15.2" x2="20.9" y2="27.2"/>
<line fill="none" stroke="#FF8A22" stroke-width="2" stroke-miterlimit="10" x1="26.9" y1="21.2" x2="14.9" y2="21.2"/>
</svg>
