<?xml version="1.0" encoding="utf-8"?>
<!-- Generator: Adobe Illustrator 16.0.4, SVG Export Plug-In . SVG Version: 6.00 Build 0)  -->
<!DOCTYPE svg PUBLIC "-//W3C//DTD SVG 1.1//EN" "http://www.w3.org/Graphics/SVG/1.1/DTD/svg11.dtd">
<svg version="1.1" id="Layer_1" xmlns="http://www.w3.org/2000/svg" xmlns:xlink="http://www.w3.org/1999/xlink" x="0px" y="0px"
	 width="42px" height="42px" viewBox="0 0 42 42" enable-background="new 0 0 42 42" xml:space="preserve">
<path fill="none" stroke="#8B928F" stroke-width="5" stroke-miterlimit="10" d="M39.5,18.3c0-4.3-3.5-7.8-7.8-7.8H10.3
	c-4.3,0-7.8,3.5-7.8,7.8v13.4c0,4.3,3.5,7.8,7.8,7.8h21.4c4.3,0,7.8-3.5,7.8-7.8V18.3z"/>
<path fill="none" stroke="#8B928F" stroke-width="5" stroke-miterlimit="10" d="M29.5,24.3c0-4.3-3.5-7.8-7.8-7.8h-0.3
	c-4.3,0-7.8,3.5-7.8,7.8v0.3c0,4.3,3.5,7.8,7.8,7.8h0.3c4.3,0,7.8-3.5,7.8-7.8V24.3z"/>
<line fill="none" stroke="#8B928F" stroke-width="5" stroke-miterlimit="10" x1="9" y1="2.5" x2="18" y2="2.5"/>
</svg>
