<?xml version="1.0" encoding="utf-8"?>
<!-- Generator: Adobe Illustrator 16.0.4, SVG Export Plug-In . SVG Version: 6.00 Build 0)  -->
<!DOCTYPE svg PUBLIC "-//W3C//DTD SVG 1.1//EN" "http://www.w3.org/Graphics/SVG/1.1/DTD/svg11.dtd">
<svg version="1.1" id="Layer_1" xmlns="http://www.w3.org/2000/svg" xmlns:xlink="http://www.w3.org/1999/xlink" x="0px" y="0px"
	 width="53.8px" height="35px" viewBox="0 0 53.8 35" enable-background="new 0 0 53.8 35" xml:space="preserve">
<g>
	<path fill="#8B928F" d="M51.1,14.3H40.8v-2.5l3.5-3.5c1-1,1.6-1.7,1.9-2.1c0.3-0.4,0.5-0.7,0.6-1C47,5,47,4.7,47,4.4
		c0-0.4-0.1-0.7-0.4-0.9c-0.2-0.2-0.6-0.3-1-0.3c-0.4,0-0.9,0.1-1.3,0.4c-0.5,0.3-1,0.6-1.5,1.1l-2.1-2.5c0.7-0.7,1.3-1.1,1.8-1.4
		c0.5-0.3,1-0.5,1.6-0.6s1.2-0.2,2-0.2c0.9,0,1.7,0.2,2.5,0.5s1.3,0.8,1.7,1.4s0.6,1.3,0.6,2c0,0.6-0.1,1.1-0.2,1.5S50.3,6.3,50,6.8
		c-0.3,0.5-0.7,0.9-1.2,1.4s-1.5,1.5-3.1,2.9v0.1h5.4V14.3z"/>
</g>
<g>
	<circle fill="none" stroke="#8B928F" stroke-width="6" stroke-miterlimit="10" cx="14.3" cy="20.7" r="11.3"/>
	<line fill="none" stroke="#8B928F" stroke-width="6" stroke-miterlimit="10" x1="25.8" y1="22.2" x2="53.8" y2="22.2"/>
	<line fill="none" stroke="#8B928F" stroke-width="6" stroke-miterlimit="10" x1="37.8" y1="23.2" x2="37.8" y2="34.2"/>
	<line fill="none" stroke="#8B928F" stroke-width="6" stroke-miterlimit="10" x1="46.8" y1="23.2" x2="46.8" y2="34.2"/>
</g>
</svg>
