<?xml version="1.0" encoding="utf-8"?>
<!-- Generator: Adobe Illustrator 16.0.4, SVG Export Plug-In . SVG Version: 6.00 Build 0)  -->
<!DOCTYPE svg PUBLIC "-//W3C//DTD SVG 1.1//EN" "http://www.w3.org/Graphics/SVG/1.1/DTD/svg11.dtd">
<svg version="1.1" id="Layer_1" xmlns="http://www.w3.org/2000/svg" xmlns:xlink="http://www.w3.org/1999/xlink" x="0px" y="0px"
	 width="488px" height="155.4px" viewBox="0 0 488 155.4" enable-background="new 0 0 488 155.4" xml:space="preserve">
<g>
	<g>
		<path fill="#FFFFFF" d="M52,141.2c0,0-35.1-35.9-35.1-55.3c0-19.4,15.7-35.1,35.1-35.1c19.4,0,35.1,15.7,35.1,35.1
			C87.1,105.3,52,141.2,52,141.2z"/>
		<g>
			<g>
				<path opacity="0.3" fill="#CE7200" d="M101.6,86.9L81.9,42.6l-0.1,0c-4.4-9.6-13.3-16.7-24-18.5c-0.6-0.4-0.9-1-1.1-1.5v-6.8
					c0-2.6,2.4-1.4,2.4-1.4l0,0c3.8,3,9.5,6.5,17.3,9.6c19.2,7.6,31.7,8.2,31.7,8.2s-2-22.7-22.8-29.4C76.5,0.1,62,0.7,56.7,7.7V3.3
					c0-1.8-1.5-3.2-3.2-3.2h-3.3c-1.8,0-3.2,1.5-3.2,3.2v2.2v16.3c0,0.4-0.2,2.1-1.9,2.6c-10,2.2-18.2,9.1-22.4,18.2l0,0l-0.4,0.8
					c0,0,0,0,0,0L4.2,84.2C3.7,85,3.4,85.8,3,86.7l-0.1,0.2l0,0C1,91.7,0,97.1,0,103.1c0,28.9,23.4,52.3,52.3,52.3
					c28.9,0,52.3-23.4,52.3-52.3C104.5,97.1,103.5,91.7,101.6,86.9C101.6,86.9,101.6,86.9,101.6,86.9z M52.7,140
					c0,0-33.2-33.9-33.2-52.3c0-18.3,14.9-33.2,33.2-33.2c18.3,0,33.2,14.9,33.2,33.2C85.9,106.1,52.7,140,52.7,140z"/>
				<linearGradient id="SVGID_1_" gradientUnits="userSpaceOnUse" x1="51.9961" y1="18.0747" x2="51.9961" y2="106.8366">
					<stop  offset="0" style="stop-color:#FF8E24"/>
					<stop  offset="0.4738" style="stop-color:#FF8C23"/>
					<stop  offset="0.652" style="stop-color:#FF851F"/>
					<stop  offset="0.7803" style="stop-color:#FF7919"/>
					<stop  offset="0.8846" style="stop-color:#FF6810"/>
					<stop  offset="0.9734" style="stop-color:#FF5204"/>
					<stop  offset="1" style="stop-color:#FF4A00"/>
				</linearGradient>
				<path fill="url(#SVGID_1_)" d="M52,67.2c-10.7,0-19.4,8.7-19.4,19.4c0,10.7,8.7,19.4,19.4,19.4c10.7,0,19.4-8.7,19.4-19.4
					C71.4,75.9,62.7,67.2,52,67.2z"/>
				<linearGradient id="SVGID_2_" gradientUnits="userSpaceOnUse" x1="53.3789" y1="104.9131" x2="53.3789" y2="155.713">
					<stop  offset="0" style="stop-color:#FF8E24"/>
					<stop  offset="0.2851" style="stop-color:#FF8B22"/>
					<stop  offset="0.5094" style="stop-color:#FF811D"/>
					<stop  offset="0.713" style="stop-color:#FF7014"/>
					<stop  offset="0.9031" style="stop-color:#FF5908"/>
					<stop  offset="1" style="stop-color:#FF4A00"/>
				</linearGradient>
				<path fill="url(#SVGID_2_)" d="M100.4,85.7L80.9,42.1l-0.1,0C76.5,32.6,67.6,25.6,57,23.8c-0.6-0.4-0.9-1-1-1.5v-6.8
					c0-2.5,2.3-1.4,2.3-1.4l0,0c3.8,2.9,9.4,6.4,17.1,9.5c18.9,7.5,31.3,8.1,31.3,8.1s-2-22.4-22.5-29C75.5,0,61.2,0.7,56,7.6V3.2
					C56,1.4,54.6,0,52.8,0h-3.2c-1.8,0-3.2,1.4-3.2,3.2v2.2v16.1c0,0.4-0.2,2.1-1.8,2.5c-9.9,2.2-18,9-22.1,18l0,0l-0.4,0.8
					c0,0,0,0,0,0L4.1,83.1c-0.4,0.8-0.8,1.6-1.1,2.5l-0.1,0.2l0,0C1,90.4,0,95.8,0,101.8c0,28.5,23.1,51.6,51.6,51.6
					c28.5,0,51.6-23.1,51.6-51.6C103.2,95.8,102.2,90.5,100.4,85.7C100.3,85.8,100.4,85.7,100.4,85.7z M52,138.2
					c0,0-32.8-33.5-32.8-51.6c0-18.1,14.7-32.8,32.8-32.8c18.1,0,32.8,14.7,32.8,32.8C84.8,104.7,52,138.2,52,138.2z"/>
			</g>
		</g>
	</g>
	<g>
		<path fill="#1D382E" d="M144.6,69.9c0.2-0.5,0.6-0.9,1.1-1.2c1-0.5,3-0.6,5.2-0.2c0.9,0.1,1.9,0.4,3,0.9l1.2,0.5l2-7.3l-1-0.4
			c-1.4-0.6-2.8-1-4.1-1.2c-1.3-0.2-2.8-0.3-4.4-0.3c-2.1,0-4,0.3-5.4,0.9c-1.5,0.6-2.8,1.5-3.8,2.8c-1,1.2-1.6,2.8-2.1,4.6
			c-0.4,1.8-0.6,3.9-0.6,6.2v0.9h-5.8v7.6h5.8v32.1h8.3V83.7h9.9v-7.6h-9.9c0-1.4,0-2.7,0.1-3.7C144.1,71.4,144.3,70.6,144.6,69.9z"
			/>
		<path fill="#1D382E" d="M186.8,110.1c-0.1-1.6-0.2-3.3-0.2-5.1c0-2.5,0.1-5.2,0.2-8c0.1-2.9,0.2-5.8,0.2-8.8
			c0-1.4-0.1-2.8-0.4-4.3c-0.3-1.5-0.9-2.9-1.8-4.2c-0.9-1.3-2.3-2.3-4-3.1c-1.7-0.8-4-1.1-6.7-1.1c-2.8,0-5.5,0.3-8.1,0.8
			c-2.6,0.6-5,1.5-7,2.7l-0.9,0.5l2.8,6.7l1.2-0.7c0.6-0.4,1.4-0.7,2.2-1c0.9-0.3,1.8-0.6,2.8-0.8c1-0.2,1.9-0.4,2.9-0.5
			c3.8-0.5,6.6,0,7.7,1.1c0.9,0.9,1.3,2.6,1.3,4.9c0,0.8,0,1.8-0.1,2.8c-0.3,0-0.7,0-1,0h-2.1c-2.8,0-5.4,0.2-7.7,0.6
			c-2.4,0.4-4.5,1.1-6.2,2c-1.8,1-3.2,2.3-4.2,3.9c-1,1.6-1.5,3.7-1.5,6.1c0,1.8,0.3,3.4,1,4.9c0.6,1.4,1.5,2.7,2.6,3.7
			c1.1,1,2.4,1.8,3.9,2.4c1.5,0.5,3.1,0.8,4.8,0.8c1.7,0,3.2-0.2,4.6-0.6c1.3-0.4,2.5-0.8,3.5-1.4c1-0.6,1.9-1.2,2.7-2
			c0.2-0.2,0.5-0.5,0.7-0.7l1.3,4.2h6.8l-0.4-1.5C187.2,113.1,186.9,111.7,186.8,110.1z M178.6,99v4.9c-0.2,0.5-0.5,1-0.9,1.5
			c-0.4,0.6-1,1.2-1.7,1.7c-0.7,0.5-1.6,0.9-2.5,1.3c-1,0.3-2.1,0.5-3.4,0.5c-1.7,0-3-0.5-4-1.4c-1-0.9-1.5-2-1.5-3.4
			c0-1,0.2-1.7,0.7-2.4c0.5-0.7,1.3-1.2,2.2-1.6c1-0.4,2.2-0.7,3.6-0.9c1.4-0.2,2.9-0.3,4.4-0.3c0.7,0,1.4,0,2.1,0
			C177.9,99,178.3,99,178.6,99z"/>
		<path fill="#1D382E" d="M232.7,107.9l-1.4,0.5c-0.9,0.3-1.6,0.5-2.3,0.6c-0.7,0.1-1.3,0.1-1.9,0.1c-1,0-1.4-0.4-1.6-0.7
			c-0.3-0.4-0.6-1.2-0.6-3V65.6c0,0,0.1-3.9-4.8-4.4h-3.5v45.9c0,3.4,0.9,5.8,2.6,7.3c1.7,1.5,3.8,2.2,6.3,2.2
			c1.1,0,2.4-0.1,3.9-0.4c1.5-0.3,2.7-0.6,3.6-1.1l0.8-0.4L232.7,107.9z"/>
		<path fill="#1D382E" d="M286.5,78.9c-1.2-1.4-2.6-2.3-4.4-2.9c-1.6-0.5-3.6-0.8-5.7-0.8c-3,0-5.6,0.6-7.7,1.7
			c-1.5,0.8-2.8,1.7-3.9,2.8l-0.9-3.5h-6.3v39.7h8.3V89.3c0.6-1.8,1.7-3.4,3.2-4.6c1.5-1.3,3.4-1.9,5.8-1.9c2.6,0,4.2,0.8,5.1,2.4
			c1,1.8,1.5,4.5,1.5,8.2v22.4h8.3V92.1c0-3.2-0.3-5.8-0.8-7.9C288.5,82,287.7,80.2,286.5,78.9z"/>
		<path fill="#1D382E" d="M323.1,76.2c-2.1-0.5-4.6-0.7-7.5-0.7c-6.2,0-11,1.8-14.3,5.3c-3.2,3.5-4.9,8.7-4.9,15.3
			c0,6.8,1.3,12,3.8,15.3c2.6,3.4,6.6,5.2,12,5.2c2.7,0,4.9-0.4,6.6-1.3c0.9-0.4,1.7-1,2.4-1.6v0.9c0,1.8-0.1,3.4-0.4,4.6
			c-0.3,1.2-0.7,2.1-1.4,2.8c-0.6,0.7-1.5,1.2-2.6,1.5c-1.2,0.3-2.8,0.5-4.8,0.5c-2.1,0-3.8-0.2-5.1-0.6c-1.4-0.4-2.6-0.8-3.7-1.2
			l-1.2-0.5l-2.2,7.2l0.9,0.4c1.4,0.6,3,1.1,4.9,1.5c1.9,0.4,4.4,0.6,7.4,0.6c5.3,0,9.4-1.3,12.2-3.7c2.8-2.5,4.2-6.4,4.2-11.5V78.1
			l-0.8-0.3C327,77.2,325.1,76.6,323.1,76.2z M307.5,86c1.7-2,4-3,7.1-3c2.6,0,4.7,0.3,6.4,1v18.2c-0.5,2.4-1.4,4.1-2.7,5.2
			c-1.2,1.1-3,1.6-5.2,1.6c-1.5,0-2.8-0.3-3.8-0.9c-1-0.6-1.8-1.4-2.5-2.5c-0.7-1.1-1.2-2.5-1.5-4.1c-0.3-1.7-0.5-3.5-0.5-5.5
			C304.9,91.5,305.8,88.1,307.5,86z"/>
		<path fill="#1D382E" d="M376.5,61.1c-1.3-0.2-2.8-0.3-4.4-0.3c-2.1,0-4,0.3-5.4,0.9c-1.5,0.6-2.8,1.5-3.8,2.8
			c-1,1.2-1.6,2.8-2.1,4.6c-0.4,1.8-0.6,3.9-0.6,6.2v0.9h-5.8v7.6h5.8v32.1h8.3V83.7h9.9v-7.6h-9.9c0-1.4,0-2.7,0.1-3.7
			c0.1-1,0.2-1.8,0.5-2.5c0.2-0.5,0.6-0.9,1.1-1.2c1-0.5,3-0.6,5.2-0.2c0.9,0.1,1.9,0.4,3,0.9l1.2,0.5l2-7.3l-1-0.4
			C379.1,61.7,377.8,61.3,376.5,61.1z"/>
		<path fill="#1D382E" d="M391.8,77c-0.9,0.6-1.7,1.4-2.5,2.3l-0.8-3.2h-6.3v39.7h8.3V88.6c0.3-1.5,0.9-2.7,1.9-3.7
			c1-1,2.4-1.4,4.3-1.4c1.2,0,2.5,0.2,3.9,0.7l1.2,0.4l1.8-8.1l-1.1-0.3C398,74.9,394.3,75.2,391.8,77z"/>
		<path fill="#1D382E" d="M438.9,109.5c-0.1-1.9-0.2-3.7-0.2-5.5V76.1h-8.3V102c-0.4,0.9-0.8,1.8-1.3,2.7c-0.6,0.9-1.2,1.7-2,2.3
			c-0.7,0.6-1.5,1.2-2.5,1.5c-0.9,0.4-2,0.5-3.1,0.5c-1.2,0-2.3-0.2-3-0.6c-0.7-0.4-1.3-1-1.8-1.7c-0.5-0.8-0.8-1.9-1-3.3
			c-0.2-1.4-0.3-3.1-0.3-4.9V76.1h-8.3v23.7c0,3.2,0.3,5.8,0.8,7.9c0.6,2.2,1.4,4,2.6,5.3c1.2,1.4,2.6,2.3,4.3,2.9
			c1.6,0.5,3.5,0.8,5.6,0.8c3.2,0,5.9-0.7,8-2.1c1.5-1,2.7-2.1,3.8-3.4l1.2,4.7h6.4l-0.3-1.4C439.3,113,439.1,111.4,438.9,109.5z"/>
		<path fill="#1D382E" d="M486.1,107.2l-1.2,0.5c-1.1,0.4-2,0.8-2.9,1c-0.8,0.2-1.8,0.4-2.9,0.4c-1.5,0-2-0.6-2.3-1
			c-0.4-0.6-0.8-1.9-0.8-4.9V83.7h10.2v-7.6h-10.2v-9.5l-8.3,2.4v7.1h-5.8v7.6h5.8v20.6c0,4.3,0.7,7.4,2.1,9.3
			c1.5,2,3.9,3.1,7.4,3.1c1.9,0,3.8-0.2,5.4-0.6c1.7-0.4,3.2-1,4.6-1.6l0.9-0.4L486.1,107.2z"/>
		<path fill="#1D382E" d="M451.3,76.1H448v39.7h8.3V80.2C456.2,79.3,455.5,76.4,451.3,76.1z"/>
		<path fill="#1D382E" d="M242.5,76.5h-3.3v39.3h8.2V80.5C247.4,79.6,246.7,76.8,242.5,76.5z"/>
		<path fill="#1D382E" d="M210.9,107.9l-1.4,0.5c-0.9,0.3-1.6,0.5-2.3,0.6c-0.7,0.1-1.3,0.1-1.9,0.1c-1,0-1.4-0.4-1.6-0.7
			c-0.3-0.4-0.6-1.2-0.6-3V65.6c0,0,0.1-3.9-4.8-4.4h-3.5v45.9c0,3.4,0.9,5.8,2.6,7.3c1.7,1.5,3.8,2.2,6.3,2.2
			c1.1,0,2.4-0.1,3.9-0.4c1.5-0.3,2.7-0.6,3.6-1.1l0.8-0.4L210.9,107.9z"/>
	</g>
	<path fill="#1D382E" d="M234.3,64.4c0.3,0.5,1.4,1.3,1.4,1.3c1.1,0.9,2.7,1.9,5,2.8c5.5,2.2,9.1,2.4,9.1,2.4s-0.6-6.6-6.6-8.5
		C240.8,61.6,236.5,61.5,234.3,64.4z"/>
	<path fill="#1D382E" d="M444.4,64.4c0.3,0.5,1.4,1.3,1.4,1.3c1.1,0.9,2.7,1.9,5,2.8c5.5,2.2,9.1,2.4,9.1,2.4s-0.6-6.6-6.6-8.5
		C450.8,61.6,446.5,61.5,444.4,64.4z"/>
</g>
</svg>
