<?xml version="1.0" encoding="utf-8"?>
<!-- Generator: Adobe Illustrator 16.0.4, SVG Export Plug-In . SVG Version: 6.00 Build 0)  -->
<!DOCTYPE svg PUBLIC "-//W3C//DTD SVG 1.1//EN" "http://www.w3.org/Graphics/SVG/1.1/DTD/svg11.dtd">
<svg version="1.1" id="Layer_1" xmlns="http://www.w3.org/2000/svg" xmlns:xlink="http://www.w3.org/1999/xlink" x="0px" y="0px"
	 width="237.9px" height="237.9px" viewBox="0 0 237.9 237.9" enable-background="new 0 0 237.9 237.9" xml:space="preserve">
<g>
	<path fill="#FFFFFF" d="M237.9,51.6c0-28.4-23.2-51.6-51.6-51.6H51.6C23.2,0,0,23.2,0,51.6v134.8c0,28.4,23.2,51.6,51.6,51.6h134.8
		c28.4,0,51.6-23.2,51.6-51.6V51.6z"/>
	<g>
		<g>
			<path fill="#FFFFFF" d="M90.2,82l-28.3,56.3l56.3,64.3c0,0,45-68.1,45-70.2c0-2-17.1-38.6-17.9-43.4C144.5,84.2,90.2,82,90.2,82z
				"/>
			<g>
				<path opacity="0.3" fill="#CE7200" d="M175.6,131.3l-23.5-52.7l-0.1,0c-5.2-11.5-15.8-19.9-28.6-22.1c-0.8-0.5-1.1-1.2-1.3-1.8
					v-8.2c0-3.1,2.8-1.7,2.8-1.7l0,0c4.6,3.5,11.3,7.8,20.6,11.5c22.8,9.1,37.8,9.8,37.8,9.8s-2.4-27-27.2-35
					c-10.5-3.3-27.8-2.5-34,5.8v-5.3c0-2.1-1.7-3.8-3.8-3.8h-3.9c-2.1,0-3.9,1.7-3.9,3.8v2.7v19.4c0,0.5-0.2,2.5-2.2,3.1
					c-11.9,2.7-21.7,10.8-26.7,21.7l0,0l-0.4,1c0,0,0,0,0,0.1l-21.6,48.4c-0.5,1-0.9,2-1.3,3l-0.1,0.2h0c-2.3,5.7-3.5,12.1-3.5,19.4
					c0,34.4,27.8,62.2,62.2,62.2c34.4,0,62.2-27.9,62.2-62.2C179.1,143.4,177.8,137,175.6,131.3
					C175.6,131.3,175.6,131.3,175.6,131.3z M117.3,194.5c0,0-39.5-40.4-39.5-62.2c0-21.8,17.7-39.5,39.5-39.5
					c21.8,0,39.5,17.7,39.5,39.5C156.8,154.1,117.3,194.5,117.3,194.5z"/>
				<linearGradient id="SVGID_1_" gradientUnits="userSpaceOnUse" x1="116.5161" y1="49.3379" x2="116.5161" y2="155.0193">
					<stop  offset="0" style="stop-color:#FF8E24"/>
					<stop  offset="0.4738" style="stop-color:#FF8C23"/>
					<stop  offset="0.652" style="stop-color:#FF851F"/>
					<stop  offset="0.7803" style="stop-color:#FF7919"/>
					<stop  offset="0.8846" style="stop-color:#FF6810"/>
					<stop  offset="0.9734" style="stop-color:#FF5204"/>
					<stop  offset="1" style="stop-color:#FF4A00"/>
				</linearGradient>
				<path fill="url(#SVGID_1_)" d="M116.5,107.8c-12.8,0-23.1,10.3-23.1,23.1c0,12.8,10.3,23.1,23.1,23.1
					c12.7,0,23.1-10.3,23.1-23.1C139.6,118.2,129.3,107.8,116.5,107.8z"/>
				<linearGradient id="SVGID_2_" gradientUnits="userSpaceOnUse" x1="118.1636" y1="152.7285" x2="118.1636" y2="213.2063">
					<stop  offset="0" style="stop-color:#FF8E24"/>
					<stop  offset="0.2851" style="stop-color:#FF8B22"/>
					<stop  offset="0.5094" style="stop-color:#FF811D"/>
					<stop  offset="0.713" style="stop-color:#FF7014"/>
					<stop  offset="0.9031" style="stop-color:#FF5908"/>
					<stop  offset="1" style="stop-color:#FF4A00"/>
				</linearGradient>
				<path fill="url(#SVGID_2_)" d="M174.1,129.9l-23.2-52l-0.1,0c-5.2-11.3-15.6-19.6-28.3-21.8c-0.7-0.5-1.1-1.2-1.2-1.8v-8.1
					c0-3,2.8-1.6,2.8-1.6l0,0c4.5,3.5,11.1,7.7,20.3,11.3c22.5,9,37.3,9.7,37.3,9.7s-2.3-26.7-26.8-34.6
					c-10.4-3.3-27.5-2.5-33.6,5.7v-5.2c0-2.1-1.7-3.8-3.8-3.8h-3.8c-2.1,0-3.8,1.7-3.8,3.8v2.6v19.2c0,0.5-0.2,2.5-2.2,3
					c-11.7,2.6-21.4,10.7-26.3,21.4l0,0l-0.4,1c0,0,0,0,0,0.1l-21.4,47.8c-0.5,1-0.9,2-1.3,3l-0.1,0.2l0,0c-2.2,5.6-3.5,12-3.5,19.1
					c0,33.9,27.5,61.4,61.4,61.4c33.9,0,61.5-27.5,61.5-61.4C177.5,141.9,176.3,135.5,174.1,129.9
					C174.1,129.9,174.1,129.9,174.1,129.9z M116.5,192.4c0,0-39-39.9-39-61.5c0-21.6,17.5-39,39-39c21.6,0,39,17.5,39,39
					C155.6,152.5,116.5,192.4,116.5,192.4z"/>
			</g>
		</g>
	</g>
</g>
</svg>
