<?xml version="1.0" encoding="utf-8"?>
<!-- Generator: Adobe Illustrator 26.5.2, SVG Export Plug-In . SVG Version: 6.00 Build 0)  -->
<svg version="1.1" id="Layer_1" xmlns="http://www.w3.org/2000/svg" xmlns:xlink="http://www.w3.org/1999/xlink" x="0px" y="0px"
	 viewBox="0 0 289.1 289.1" style="enable-background:new 0 0 289.1 289.1;" xml:space="preserve">
<style type="text/css">
	.st0{opacity:0.3;fill:#CE7200;enable-background:new    ;}
	.st1{fill:url(#SVGID_1_);}
	.st2{fill:url(#SVGID_00000040562022669467177170000008036693316660327844_);}
</style>
<g>
	<g>
		<g>
			<g>
				<path class="st0" d="M187.2,154.7l-17.3-38.7h-0.1c-3.8-8.5-11.6-14.6-21-16.2c-0.6-0.4-0.8-0.9-1-1.3v-6c0-2.3,2.1-1.2,2.1-1.2
					l0,0c3.4,2.6,8.3,5.7,15.1,8.5c16.8,6.7,27.8,7.2,27.8,7.2s-1.8-19.8-20-25.7c-7.7-2.4-20.4-1.8-25,4.3v-3.9
					c0-1.5-1.2-2.8-2.8-2.8h-2.9c-1.5,0-2.9,1.2-2.9,2.8v2v14.3c0,0.4-0.1,1.8-1.6,2.3c-8.7,2-16,7.9-19.6,16l0,0l-0.3,0.7
					c0,0,0,0,0,0.1l-15.9,35.6c-0.4,0.7-0.7,1.5-1,2.2l-0.1,0.1l0,0c-1.7,4.2-2.6,8.9-2.6,14.3c0,25.3,20.4,45.7,45.7,45.7
					s45.7-20.5,45.7-45.7C189.8,163.6,188.8,158.9,187.2,154.7L187.2,154.7z M144.4,201.1c0,0-29-29.7-29-45.7s13-29,29-29
					s29,13,29,29S144.4,201.1,144.4,201.1z"/>
				
					<linearGradient id="SVGID_1_" gradientUnits="userSpaceOnUse" x1="143.7623" y1="410.9562" x2="143.7623" y2="488.6403" gradientTransform="matrix(1 0 0 1 0 -316.5197)">
					<stop  offset="0" style="stop-color:#FF8E24"/>
					<stop  offset="0.4738" style="stop-color:#FF8C23"/>
					<stop  offset="0.652" style="stop-color:#FF851F"/>
					<stop  offset="0.7803" style="stop-color:#FF7919"/>
					<stop  offset="0.8846" style="stop-color:#FF6810"/>
					<stop  offset="0.9734" style="stop-color:#FF5204"/>
					<stop  offset="1" style="stop-color:#FF4A00"/>
				</linearGradient>
				<path class="st1" d="M143.8,137.4c-9.4,0-17,7.6-17,17c0,9.4,7.6,17,17,17c9.3,0,17-7.6,17-17
					C160.7,145,153.2,137.4,143.8,137.4z"/>
				
					<linearGradient id="SVGID_00000145778646949776551420000008440220058207651515_" gradientUnits="userSpaceOnUse" x1="145.0119" y1="486.9564" x2="145.0119" y2="531.4123" gradientTransform="matrix(1 0 0 1 0 -316.5197)">
					<stop  offset="0" style="stop-color:#FF8E24"/>
					<stop  offset="0.2851" style="stop-color:#FF8B22"/>
					<stop  offset="0.5094" style="stop-color:#FF811D"/>
					<stop  offset="0.713" style="stop-color:#FF7014"/>
					<stop  offset="0.9031" style="stop-color:#FF5908"/>
					<stop  offset="1" style="stop-color:#FF4A00"/>
				</linearGradient>
				<path style="fill:url(#SVGID_00000145778646949776551420000008440220058207651515_);" d="M186.1,153.6L169,115.4H169
					c-3.8-8.3-11.5-14.4-20.8-16c-0.5-0.4-0.8-0.9-0.9-1.3v-6c0-2.2,2.1-1.2,2.1-1.2l0,0c3.3,2.6,8.2,5.7,14.9,8.3
					c16.5,6.6,27.4,7.1,27.4,7.1S190,86.8,172,80.9c-7.6-2.4-20.2-1.8-24.7,4.2v-3.8c0-1.5-1.2-2.8-2.8-2.8h-2.8
					c-1.5,0-2.8,1.2-2.8,2.8v1.9v14.1c0,0.4-0.1,1.8-1.6,2.2c-8.6,1.9-15.7,7.9-19.3,15.7l0,0l-0.3,0.7c0,0,0,0,0,0.1l-15.7,35.1
					c-0.4,0.7-0.7,1.5-1,2.2l-0.1,0.1l0,0c-1.6,4.1-2.6,8.8-2.6,14c0,24.9,20.2,45.1,45.1,45.1s45.2-20.2,45.2-45.1
					C188.6,162.5,187.7,157.8,186.1,153.6L186.1,153.6z M143.8,199.6c0,0-28.7-29.3-28.7-45.2s12.9-28.7,28.7-28.7
					c15.9,0,28.7,12.9,28.7,28.7C172.5,170.3,143.8,199.6,143.8,199.6z"/>
			</g>
		</g>
	</g>
</g>
</svg>
