<?xml version="1.0" encoding="utf-8"?>
<!-- Generator: Adobe Illustrator 26.5.2, SVG Export Plug-In . SVG Version: 6.00 Build 0)  -->
<svg version="1.1" id="Layer_1" xmlns="http://www.w3.org/2000/svg" xmlns:xlink="http://www.w3.org/1999/xlink" x="0px" y="0px"
	 viewBox="0 0 289.1 289.1" style="enable-background:new 0 0 289.1 289.1;" xml:space="preserve">
<style type="text/css">
	.st0{opacity:0.3;fill:#CE7200;enable-background:new    ;}
	.st1{fill:url(#SVGID_1_);}
	.st2{fill:url(#SVGID_00000071551681068773647540000012698958578435338114_);}
</style>
<g>
	<g>
		<g>
			<g>
				<path class="st0" d="M202.2,157.6l-23.5-52.7h-0.1C173.4,93.4,162.8,85,150,82.8c-0.8-0.5-1.1-1.2-1.3-1.8v-8.2
					c0-3.1,2.8-1.7,2.8-1.7l0,0c4.6,3.5,11.3,7.8,20.6,11.5c22.8,9.1,37.8,9.8,37.8,9.8s-2.4-27-27.2-35c-10.5-3.3-27.8-2.5-34,5.8
					v-5.3c0-2.1-1.7-3.8-3.8-3.8H141c-2.1,0-3.9,1.7-3.9,3.8v2.7V80c0,0.5-0.2,2.5-2.2,3.1c-11.9,2.7-21.7,10.8-26.7,21.7l0,0
					l-0.4,1c0,0,0,0,0,0.1l-21.6,48.4c-0.5,1-0.9,2-1.3,3l-0.1,0.2l0,0c-2.3,5.7-3.5,12.1-3.5,19.4c0,34.4,27.8,62.2,62.2,62.2
					s62.2-27.9,62.2-62.2C205.7,169.7,204.4,163.3,202.2,157.6L202.2,157.6z M143.9,220.8c0,0-39.5-40.4-39.5-62.2
					s17.7-39.5,39.5-39.5s39.5,17.7,39.5,39.5S143.9,220.8,143.9,220.8z"/>
				
					<linearGradient id="SVGID_1_" gradientUnits="userSpaceOnUse" x1="143.1" y1="392.1745" x2="143.1" y2="497.8559" gradientTransform="matrix(1 0 0 1 0 -316.5197)">
					<stop  offset="0" style="stop-color:#FF8E24"/>
					<stop  offset="0.4738" style="stop-color:#FF8C23"/>
					<stop  offset="0.652" style="stop-color:#FF851F"/>
					<stop  offset="0.7803" style="stop-color:#FF7919"/>
					<stop  offset="0.8846" style="stop-color:#FF6810"/>
					<stop  offset="0.9734" style="stop-color:#FF5204"/>
					<stop  offset="1" style="stop-color:#FF4A00"/>
				</linearGradient>
				<path class="st1" d="M143.1,134.1c-12.8,0-23.1,10.3-23.1,23.1s10.3,23.1,23.1,23.1c12.7,0,23.1-10.3,23.1-23.1
					C166.2,144.5,155.9,134.1,143.1,134.1z"/>
				
					<linearGradient id="SVGID_00000046313169823604391460000008906252642660555143_" gradientUnits="userSpaceOnUse" x1="144.8" y1="495.5651" x2="144.8" y2="556.0429" gradientTransform="matrix(1 0 0 1 0 -316.5197)">
					<stop  offset="0" style="stop-color:#FF8E24"/>
					<stop  offset="0.2851" style="stop-color:#FF8B22"/>
					<stop  offset="0.5094" style="stop-color:#FF811D"/>
					<stop  offset="0.713" style="stop-color:#FF7014"/>
					<stop  offset="0.9031" style="stop-color:#FF5908"/>
					<stop  offset="1" style="stop-color:#FF4A00"/>
				</linearGradient>
				<path style="fill:url(#SVGID_00000046313169823604391460000008906252642660555143_);" d="M200.7,156.2l-23.2-52h-0.1
					c-5.2-11.3-15.6-19.6-28.3-21.8c-0.7-0.5-1.1-1.2-1.2-1.8v-8.1c0-3,2.8-1.6,2.8-1.6l0,0c4.5,3.5,11.1,7.7,20.3,11.3
					c22.5,9,37.3,9.7,37.3,9.7s-2.3-26.7-26.8-34.6C171.1,54,154,54.8,147.9,63v-5.2c0-2.1-1.7-3.8-3.8-3.8h-3.8
					c-2.1,0-3.8,1.7-3.8,3.8v2.6v19.2c0,0.5-0.2,2.5-2.2,3c-11.7,2.6-21.4,10.7-26.3,21.4l0,0l-0.4,1c0,0,0,0,0,0.1l-21.4,47.8
					c-0.5,1-0.9,2-1.3,3l-0.1,0.2l0,0c-2.2,5.6-3.5,12-3.5,19.1c0,33.9,27.5,61.4,61.4,61.4s61.5-27.5,61.5-61.4
					C204.1,168.2,202.9,161.8,200.7,156.2L200.7,156.2z M143.1,218.7c0,0-39-39.9-39-61.5s17.5-39,39-39c21.6,0,39,17.5,39,39
					C182.2,178.8,143.1,218.7,143.1,218.7z"/>
			</g>
		</g>
	</g>
</g>
</svg>
